<svg width="29" height="14" viewBox="0 0 29 14" fill="none" xmlns="http://www.w3.org/2000/svg">
<path fill-rule="evenodd" clip-rule="evenodd" d="M28.1701 0L11.5908 12.3205C10.0407 13.4668 8.09884 13.9503 6.19228 13.6648C4.28571 13.3792 2.57067 12.348 1.42443 10.798C0.278199 9.24791 -0.205335 7.306 0.080205 5.39944C0.365745 3.49287 1.39697 1.77783 2.94702 0.631592L3.79516 0H9.93512L5.12601 3.60909C4.74951 3.89021 4.43207 4.24272 4.19181 4.64652C3.95155 5.05031 3.79318 5.49748 3.72573 5.96248C3.58952 6.90159 3.83195 7.85634 4.39968 8.61671C4.96741 9.37708 5.81395 9.88078 6.75306 10.017C7.69217 10.1532 8.64693 9.91078 9.4073 9.34304L21.9173 0H28.1701ZM5.42376 6.19411C5.38825 6.43605 5.40106 6.68263 5.46147 6.91958C5.52187 7.15654 5.62865 7.37917 5.77565 7.57459C5.92157 7.77054 6.10469 7.93579 6.31454 8.06091C6.52439 8.18602 6.75684 8.26854 6.99861 8.30373C7.24038 8.33893 7.48671 8.32612 7.72352 8.26603C7.96033 8.20594 8.18297 8.09975 8.3787 7.95354L19.0436 0H12.8224L6.16813 4.9625C5.96824 5.10783 5.79942 5.29164 5.67159 5.50314C5.54376 5.71465 5.4595 5.94957 5.42376 6.19411ZM22.4722 6.29336L19.3639 8.62574L23.1579 13.5025H27.8994L22.4857 6.28434L22.4722 6.29336ZM17.9834 9.6453L14.8976 11.9777L16.048 13.5115H20.9338L17.9834 9.6453Z" fill="#00477B"/>
</svg>
