<svg width="261" height="14" viewBox="0 0 261 14" fill="none" xmlns="http://www.w3.org/2000/svg">
<path fill-rule="evenodd" clip-rule="evenodd" d="M216.712 0.135768H219.524L222.404 6.53865L224.867 0.135768H227.471L223.287 9.53633C222.941 10.3767 222.473 11.1611 221.897 11.8638C221.674 12.1251 221.396 12.3338 221.083 12.4747C220.769 12.6157 220.429 12.6854 220.085 12.6789C219.507 12.692 218.929 12.6434 218.36 12.534V10.6593C218.713 10.6835 219.033 10.6955 219.32 10.6955C219.758 10.7339 220.195 10.6221 220.561 10.3786C220.907 9.99123 221.153 9.52472 221.276 9.02011L216.712 0.135768ZM228.725 12.5023V0.135768H232.728C233.721 0.0960331 234.714 0.158244 235.694 0.321425C236.408 0.511653 237.036 0.939745 237.474 1.53498C237.979 2.23386 238.234 3.08242 238.198 3.94399C238.219 4.60648 238.077 5.26395 237.786 5.85942C237.54 6.34438 237.181 6.76352 236.74 7.08204C236.353 7.35978 235.914 7.55829 235.45 7.66618C234.595 7.80376 233.729 7.86287 232.864 7.84278H231.238V12.5068L228.725 12.5023ZM231.229 2.22327V5.75075H232.588C233.249 5.78794 233.912 5.72225 234.553 5.55603C234.87 5.43874 235.143 5.22494 235.332 4.94473C235.522 4.65951 235.62 4.32287 235.613 3.98022C235.628 3.57088 235.487 3.17098 235.219 2.86175C234.958 2.56923 234.605 2.37439 234.218 2.30931C233.617 2.2372 233.012 2.20995 232.407 2.2278L231.229 2.22327ZM249.872 12.5023L244.918 0.135768H242.274L237.474 12.5068H240.123L241.151 9.69029H246.132L247.2 12.5068L249.872 12.5023ZM245.299 7.59826H241.911L243.582 3.02024L245.303 7.59826H245.299ZM252.308 0.135768H260.971V12.5068H258.467V2.2278H254.753V7.50769C254.778 8.5666 254.727 9.62592 254.599 10.6774C254.531 11.219 254.269 11.7176 253.861 12.0812C253.334 12.4536 252.694 12.6313 252.05 12.5838C251.756 12.5838 251.226 12.5566 250.456 12.5023V10.5552H251.013C251.378 10.5942 251.746 10.5215 252.068 10.3469C252.249 10.205 252.34 9.85934 252.34 9.30992V7.18619L252.308 0.135768Z" fill="#00477B"/>
<path fill-rule="evenodd" clip-rule="evenodd" d="M28.2752 0.203705L11.6341 12.5702C10.0782 13.7208 8.12907 14.2061 6.21539 13.9195C4.30171 13.6329 2.58027 12.5978 1.42975 11.042C0.279237 9.48613 -0.206102 7.53698 0.0805044 5.6233C0.367111 3.70962 1.40218 1.98817 2.95802 0.837654L3.80932 0.203705H9.97221L5.14514 3.82627C4.76724 4.10843 4.44862 4.46227 4.20746 4.86757C3.9663 5.27287 3.80734 5.7217 3.73964 6.18844C3.60292 7.13105 3.84625 8.08937 4.4161 8.85258C4.98596 9.61579 5.83565 10.1214 6.77827 10.2581C7.72088 10.3948 8.6792 10.1515 9.44241 9.58162L21.9991 0.203705H28.2752ZM5.44401 6.42093C5.40836 6.66378 5.42123 6.91128 5.48185 7.14912C5.54248 7.38696 5.64966 7.61042 5.79721 7.80656C5.94367 8.00325 6.12748 8.16912 6.33811 8.2947C6.54874 8.42028 6.78207 8.50311 7.02473 8.53843C7.2674 8.57376 7.51466 8.5609 7.75235 8.50059C7.99004 8.44027 8.21351 8.33369 8.40998 8.18693L19.1147 0.203705H12.8703L6.19116 5.18473C5.99052 5.3306 5.82107 5.5151 5.69276 5.72739C5.56445 5.93968 5.47988 6.17549 5.44401 6.42093ZM22.5561 6.52055L19.4362 8.86164L23.2444 13.7566H28.0035L22.5697 6.5115L22.5561 6.52055ZM18.0505 9.88501L14.9532 12.2261L16.1079 13.7657H21.012L18.0505 9.88501Z" fill="#00477B"/>
<path fill-rule="evenodd" clip-rule="evenodd" d="M200.097 0.199245V3.46414H203.416V12.566H207.161V3.46414H210.462V0.199245H200.097ZM195.22 5.95017L200.097 12.566H195.537L192.756 8.20978L192.073 9.11544V12.5434H188.328V0.203773H192.073V4.83621L195.315 0.199245H199.893L195.22 5.95017ZM186.657 9.45506H181.019V7.87469H186.53V4.75923H181.019V3.31471H186.657V0.203773H177.274V12.566H186.657V9.45053V9.45506ZM171.836 12.5388H176.079L172.049 0.167547H167.339L163.304 12.5343H167.556L169.698 4.73659L171.84 12.5343L171.836 12.5388ZM158.369 12.5705H162.123V0.203773H150.195V12.566H153.94V3.46414H158.373V12.566L158.369 12.5705ZM140.84 6.50715L138.684 0.203773H133.513V12.566H137.258V4.76376L140.02 12.566H141.691L144.462 4.76376V12.566H148.207V0.203773H143.022L140.84 6.50715ZM125.412 0C129.234 0 132.177 2.59471 132.177 6.39847C132.177 10.2022 129.229 12.7924 125.412 12.7924C121.594 12.7924 118.651 10.1977 118.651 6.39847C118.651 2.59924 121.594 0 125.412 0ZM125.412 9.5094C127.223 9.5094 128.378 8.15091 128.378 6.41205C128.378 4.67319 127.209 3.31471 125.412 3.31471C123.614 3.31471 122.446 4.67319 122.446 6.41205C122.446 8.15091 123.632 9.5094 125.412 9.5094ZM119.185 0.203773H114.607L111.365 4.84074V0.203773H107.62V12.5705H111.365V9.13808L112.049 8.23242L114.829 12.5886H119.389L114.517 5.95017L119.185 0.203773ZM106.674 0.203773H102.245L100.28 3.72678L98.2736 0.203773H93.8812L97.7393 6.23092L93.605 12.5705H98.0155L100.28 8.7894L102.544 12.5705H106.959L102.825 6.23092L106.674 0.203773ZM83.8918 12.5705H93.2925V9.45506H87.6367V7.87922H93.1431V4.76376H87.6367V3.31923H93.2925V0.203773H83.8918V12.5705ZM72.1952 3.46867H75.5145V12.5705H79.2548V3.46867H82.5559V0.203773H72.1952V3.46867ZM67.1145 4.58262H62.6858V0.203773H58.9409V12.5705H62.6858V7.84299H67.1145V12.5705H70.8594V0.203773H67.1145V4.5781V4.58262ZM53.7153 0.208301L58.2753 12.5705H54.1998L53.7198 10.9766H48.9877L48.5032 12.5705H44.4278L49.0059 0.208301H53.7153ZM52.7734 7.86563L51.3606 3.50489L49.9523 7.8611L52.7734 7.86563ZM44.8036 9.18336L41.5749 7.69809C41.4 8.22081 41.0666 8.67609 40.6211 9.00069C40.1756 9.32528 39.6401 9.50309 39.0889 9.5094C37.3863 9.5094 36.1772 8.15091 36.1772 6.41205C36.1772 4.67319 37.3817 3.30565 39.0889 3.30565C39.6403 3.31129 40.1761 3.48884 40.6217 3.81353C41.0674 4.13822 41.4006 4.59387 41.5749 5.11696L44.7991 3.62263C44.0564 1.89282 42.4263 0 39.0889 0C35.3078 0 32.378 2.58112 32.378 6.39847C32.378 10.2158 35.3304 12.7969 39.0889 12.7969C42.4263 12.7969 44.0791 10.8271 44.7991 9.17883L44.8036 9.18336Z" fill="#00477B"/>
</svg>
